<?xml version="1.0" encoding="UTF-8"?>
<svg width="100px" height="34px" viewBox="0 0 80 27" version="1.1" xmlns="http://www.w3.org/2000/svg" xmlns:xlink="http://www.w3.org/1999/xlink">
    <!-- Generator: Sketch 52.4 (67378) - http://www.bohemiancoding.com/sketch -->
    <title>logo top</title>
    <desc>Created with Sketch.</desc>
    <defs>
        <polygon id="path-1" points="4.89296636e-05 0.0755018182 15.9752236 0.0755018182 15.9752236 11.7818182 4.89296636e-05 11.7818182"></polygon>
        <polygon id="path-3" points="0.160880734 0.22626 5.02140673 0.22626 5.02140673 14.7318873 0.160880734 14.7318873"></polygon>
        <polygon id="path-5" points="0 27 79.883792 27 79.883792 0 0 0"></polygon>
    </defs>
    <g id="home" stroke="none" stroke-width="1" fill="none" fill-rule="evenodd">
        <g id="Item">
            <g id="Group-64">
                <path d="M4.89296636e-05,15.2936836 L15.3617615,0.103729091 C15.5031682,-0.0359345455 15.7309358,-0.0342163636 15.8703853,0.107656364 C16.0100795,0.249774545 16.008367,0.478538182 15.8669602,0.618201818 C15.8642691,0.620901818 15.860844,0.624092727 15.8579083,0.626547273 L4.89296636e-05,15.2936836 Z" id="Fill-1" fill="currentColor"></path>
                <path d="M4.89296636e-05,15.2936836 L20.0832294,0.198229091 C20.2424954,0.0784472727 20.4678165,0.111092727 20.5869602,0.270638182 C20.7063486,0.430183636 20.6738104,0.656492727 20.514789,0.776029091 C20.5125872,0.777747273 20.5089174,0.780447273 20.5064709,0.782165455 L4.89296636e-05,15.2936836 Z" id="Fill-3" fill="currentColor"></path>
                <path d="M4.89296636e-05,15.2936836 L25.2651254,0.177856364 C25.4356453,0.0757472727 25.6568073,0.131710909 25.758581,0.303038182 C25.8603547,0.474365455 25.8045749,0.695765455 25.6338104,0.797874545 C25.6318532,0.799101818 25.6281835,0.801310909 25.6262263,0.802292727 L4.89296636e-05,15.2936836 Z" id="Fill-5" fill="currentColor"></path>
                <path d="M4.89296636e-05,15.2936836 L27.7798654,2.47064727 C27.9604159,2.38743818 28.1742385,2.46647455 28.257419,2.64762 C28.3403547,2.82901091 28.2613333,3.04329273 28.0807829,3.12674727 C28.0788257,3.12748364 28.075156,3.12920182 28.0731988,3.12993818 L4.89296636e-05,15.2936836 Z" id="Fill-7" fill="currentColor"></path>
                <path d="M4.89296636e-05,15.2936836 L27.9092844,13.5944018 C28.1079388,13.5823745 28.2782141,13.7340655 28.2904465,13.9328836 C28.3024343,14.1321927 28.1512416,14.30352 27.9530765,14.3155473 C27.95063,14.3155473 27.9459817,14.3157927 27.9437798,14.3157927 L4.89296636e-05,15.2936836 Z" id="Fill-9" fill="currentColor"></path>
                <path d="M4.89296636e-05,15.2936836 L29.5760734,5.25312 C29.7644526,5.18930182 29.9684893,5.29067455 30.0323425,5.47967455 C30.0959511,5.66842909 29.9949113,5.87313818 29.8065321,5.93720182 C29.8045749,5.93793818 29.8009052,5.93916545 29.7987034,5.93965636 L4.89296636e-05,15.2936836 Z" id="Fill-11" fill="currentColor"></path>
                <path d="M4.89296636e-05,15.2936836 L29.7876942,8.14555636 C29.9809664,8.09916545 30.1752171,8.21894727 30.2214557,8.41285636 C30.2674495,8.60676545 30.1483058,8.80165636 29.9550336,8.84780182 C29.9528318,8.84829273 29.9491621,8.84927455 29.9469602,8.84976545 L4.89296636e-05,15.2936836 Z" id="Fill-13" fill="currentColor"></path>
                <path d="M4.89296636e-05,15.2936836 L29.2519144,10.8615109 C29.4486116,10.8318109 29.6318532,10.9675473 29.6617003,11.1648927 C29.6913028,11.3617473 29.5560122,11.5458382 29.3595596,11.5757836 C29.3571131,11.5760291 29.3531988,11.57652 29.3507523,11.5767655 L4.89296636e-05,15.2936836 Z" id="Fill-15" fill="currentColor"></path>
                <path d="M4.89296636e-05,15.2936836 L25.0018838,16.3248382 C25.2005382,16.3329382 25.3549113,16.50132 25.3468379,16.7001382 C25.3387645,16.8994473 25.1711804,17.0543291 24.972526,17.0462291 C24.9695902,17.0462291 24.9649419,17.0457382 24.9622508,17.0457382 L4.89296636e-05,15.2936836 Z" id="Fill-17" fill="currentColor"></path>
                <path d="M4.89296636e-05,15.2936836 L15.7348502,20.76192 C15.9227401,20.8272109 16.0223119,21.0326564 15.9574801,21.2214109 C15.892159,21.40992 15.6871437,21.50982 15.4994985,21.4442836 C15.4948502,21.4428109 15.4892232,21.4408473 15.4848196,21.4388836 L4.89296636e-05,15.2936836 Z" id="Fill-19" fill="currentColor"></path>
                <path d="M4.89296636e-05,15.2936836 L15.6186422,17.9536745 C15.8146055,17.9873018 15.9462263,18.1736018 15.9129541,18.3702109 C15.8799266,18.56682 15.6939939,18.6993655 15.4980306,18.6659836 C15.4931376,18.6650018 15.4867768,18.6637745 15.4821284,18.6625473 L4.89296636e-05,15.2936836 Z" id="Fill-21" fill="currentColor"></path>
                <g id="Group-25" transform="translate(0.000000, 15.218182)">
                    <mask id="mask-2" fill="white">
                        <use xlink:href="#path-1"></use>
                    </mask>
                    <g id="Clip-24"></g>
                    <path d="M4.89296636e-05,0.0755018182 L15.8209664,11.1243927 C15.9839021,11.2385291 16.0242691,11.4633655 15.9107523,11.6270836 C15.7972355,11.7908018 15.572893,11.8310564 15.4097125,11.7171655 C15.4065321,11.7147109 15.4018838,11.7112745 15.3987034,11.7090655 L4.89296636e-05,0.0755018182 Z" id="Fill-23" fill="currentColor" mask="url(#mask-2)"></path>
                </g>
                <path d="M4.89296636e-05,15.2936836 L15.7801101,23.3900018 C15.9572355,23.48082 16.0272049,23.6985382 15.9369297,23.8762473 C15.8461651,24.0534655 15.6294067,24.1239109 15.452526,24.0330927 C15.4498349,24.0318655 10.2990092,21.11832 4.89296636e-05,15.2936836" id="Fill-26" fill="currentColor"></path>
                <path d="M53.1539572,14.0666564 C60.2333456,10.2289745 62.3209297,6.14608364 62.4119388,5.96248364 L62.4963425,5.79189273 L62.4963425,3.43872 L57.1265566,3.43872 L55.1608073,1.25466545 L53.9600734,2.34227455 L54.9467401,3.43872 L49.1789113,3.43872 L49.1789113,5.06166545 L60.8784832,5.06166545 L60.8784832,5.38934727 C60.418055,6.16596545 58.0217248,9.77267455 51.5713272,13.0664291 L51.2202569,12.7598564 L48.3370765,14.7671836 L49.2594006,16.1007382 L51.1334067,14.7959018 C52.3649664,15.6822382 53.8967095,16.1643109 55.5131009,16.1643109 L62.9075963,16.1643109 L62.9075963,14.54112 L55.5131009,14.54112 C54.6898593,14.54112 53.8827645,14.3715109 53.1539572,14.0666564" id="Fill-28" fill="currentColor"></path>
                <path d="M68.5149602,5.72719091 L68.5149602,5.06176364 L70.2573456,5.06176364 L70.2573456,3.43881818 L68.5149602,3.43881818 L68.5149602,1.69903636 L67.3015046,1.69903636 L67.3015046,3.43881818 L65.4935535,3.43881818 L65.4935535,5.06176364 L66.3194862,5.06176364 C66.0281101,10.7793818 65.5823609,14.6732727 65.3081101,15.1661455 C65.3098226,15.1627091 65.3120245,15.1600091 65.3139817,15.1570636 L66.3165505,15.8431091 C66.4789969,15.6037909 66.8175902,15.1057636 67.2347156,9.71754545 C67.2579572,9.4149 67.2802202,9.11397273 67.3015046,8.81770909 L67.3015046,16.2046636 L68.5149602,16.2046636 L68.5149602,7.31871818 L69.3301284,15.4852364 L70.5377125,15.3639818 L69.5649908,5.62164545 L68.5149602,5.72719091 Z" id="Fill-30" fill="currentColor"></path>
                <polygon id="Fill-32" fill="currentColor" points="76.1188991 6.75814909 74.9115596 6.87940364 75.3976758 11.7504491 76.6050153 11.6291945"></polygon>
                <path d="M70.6522813,5.14303364 L72.8746667,5.14303364 C72.7814557,6.00187909 72.6097125,7.39630636 72.3454924,8.89431545 L72.0186422,5.62167 L70.8113028,5.74292455 L71.2976636,10.61397 L72.0201101,10.5415609 C71.7874495,11.5982427 71.5078165,12.6306245 71.1736269,13.4924155 L72.6813945,14.0810155 C74.0533823,10.5425427 74.5534434,4.64770636 74.5739939,4.39857 L74.6466544,3.51984273 L70.6522813,3.51984273 L70.6522813,5.14303364 Z" id="Fill-34" fill="currentColor"></path>
                <g id="Group-38" transform="translate(74.862385, 1.472727)">
                    <mask id="mask-4" fill="white">
                        <use xlink:href="#path-3"></use>
                    </mask>
                    <g id="Clip-37"></g>
                    <path d="M5.02155352,1.96604182 L4.09751682,1.96604182 L4.09751682,0.22626 L2.47941284,0.22626 L2.47941284,1.96604182 L0.160880734,1.96604182 L0.160880734,3.58898727 L2.47941284,3.58898727 L2.47941284,12.7078691 C2.47941284,12.8971145 2.22253211,13.1086964 1.87831193,13.1086964 L1.28014679,13.1086964 L1.28014679,14.7318873 L1.87831193,14.7318873 C3.10204281,14.7318873 4.09751682,13.8239509 4.09751682,12.7078691 L4.09751682,3.58898727 L5.02155352,3.58898727 L5.02155352,1.96604182 Z" id="Fill-36" fill="currentColor" mask="url(#mask-4)"></path>
                </g>
                <path d="M39.5413333,1.42599273 L37.923474,1.42599273 L37.923474,7.37482909 L31.5173578,7.37482909 L31.5173578,8.99826545 L35.2362569,8.99826545 C35.3165015,9.50684727 35.6357676,12.6678109 31.6325872,14.6231018 L32.3405994,16.0823291 C35.1569908,14.7065564 36.2273272,12.7669745 36.6292844,11.3818745 C36.9253089,10.3620109 36.9094067,9.48475636 36.8636575,8.99826545 L40.6813945,8.99826545 L40.6813945,16.1643109 L43.0412722,16.1643109 C44.5081835,16.1643109 45.701578,15.0857836 45.701578,13.7605745 L45.701578,12.9572018 L44.083474,12.9572018 L44.083474,13.7605745 C44.083474,14.1837382 43.6061651,14.54112 43.0412722,14.54112 L42.2990092,14.54112 L42.2990092,8.99826545 L45.9476942,8.99826545 L45.9476942,7.37482909 L39.5413333,7.37482909 L39.5413333,1.42599273 Z" id="Fill-39" fill="currentColor"></path>
                <polygon id="Fill-41" fill="currentColor" points="36.4700917 5.64761455 34.0634862 2.49082364 32.7783486 3.47681455 35.1849541 6.63385091"></polygon>
                <polygon id="Fill-43" fill="currentColor" points="44.4300183 3.47686364 43.1448807 2.49062727 40.7382752 5.64766364 42.0234128 6.63365455"></polygon>
                <path d="M21.5574312,23.1237818 C21.5574312,22.4632636 21.0228746,21.9188455 20.3642813,21.9188455 C19.7054434,21.9188455 19.1708869,22.4632636 19.1708869,23.1237818 C19.1708869,23.7845455 19.7054434,24.3289636 20.3642813,24.3289636 C21.0228746,24.3289636 21.5574312,23.7845455 21.5574312,23.1237818 M22.2238532,23.1237818 C22.2238532,23.6213182 22.0300917,24.0879273 21.6738838,24.4455545 C21.3250153,24.7955727 20.8599388,24.9818727 20.3642813,24.9818727 C19.9222018,24.9818727 19.5040979,24.7720091 19.1708869,24.4921909 L19.1708869,26.9410909 L18.5044648,26.9410909 L18.5044648,21.3435 L19.1708869,21.3435 L19.1708869,21.7556182 C19.5040979,21.4755545 19.9222018,21.2659364 20.3642813,21.2659364 C20.8599388,21.2659364 21.3250153,21.4522364 21.6738838,21.8022545 C22.0300917,22.1598818 22.2238532,22.6264909 22.2238532,23.1237818" id="Fill-45" fill="currentColor"></path>
                <path d="M25.8979083,23.1237818 C25.8979083,22.4632636 25.363107,21.9343091 24.7042691,21.9343091 C24.0456758,21.9343091 23.5113639,22.4632636 23.5113639,23.1237818 C23.5113639,23.7845455 24.0456758,24.3211091 24.7042691,24.3211091 C25.363107,24.3211091 25.8979083,23.7845455 25.8979083,23.1237818 M26.563841,23.1237818 C26.563841,23.6213182 26.3703242,24.0879273 26.0138716,24.4455545 C25.6650031,24.7955727 25.2001713,24.9897273 24.7042691,24.9897273 C24.208367,24.9897273 23.7432905,24.7955727 23.3873272,24.4455545 C23.0384587,24.0879273 22.8444526,23.6213182 22.8444526,23.1237818 C22.8444526,22.6264909 23.0384587,22.1598818 23.3873272,21.8022545 C23.7432905,21.4522364 24.208367,21.2659364 24.7042691,21.2659364 C25.2001713,21.2659364 25.6650031,21.4522364 26.0138716,21.8022545 C26.3703242,22.1598818 26.563841,22.6264909 26.563841,23.1237818" id="Fill-47" fill="currentColor"></path>
                <mask id="mask-6" fill="white">
                    <use xlink:href="#path-5"></use>
                </mask>
                <g id="Clip-50"></g>
                <path d="M27.5799939,24.9043091 L28.3405415,24.9043091 L28.3405415,21.3435 L27.5799939,21.3435 L27.5799939,24.9043091 Z M27.4556575,20.3251091 C27.4556575,20.0840727 27.6769484,19.8896727 27.9602677,19.8896727 C28.2343666,19.8896727 28.4556575,20.0840727 28.4556575,20.3251091 C28.4556575,20.5661455 28.2343666,20.7681545 27.9602677,20.7681545 C27.6769484,20.7681545 27.4556575,20.5661455 27.4556575,20.3251091 Z" id="Fill-49" fill="currentColor" mask="url(#mask-6)"></path>
                <path d="M32.9425321,22.9917027 L32.9425321,24.9042845 L32.2761101,24.9042845 L32.2761101,22.9917027 C32.2761101,22.4085027 31.8110336,21.9266755 31.2297492,21.9266755 C30.6567829,21.9266755 30.1838777,22.4085027 30.1838777,22.9917027 L30.1838777,24.9042845 L29.5174557,24.9042845 L29.5174557,21.3434755 L30.1838777,21.3434755 L30.1838777,21.6856391 C30.4857737,21.4524573 30.8502997,21.2735209 31.2297492,21.2735209 C31.6872416,21.2735209 32.1212477,21.4446027 32.44663,21.7710573 C32.7644281,22.0975118 32.9425321,22.5253391 32.9425321,22.9917027" id="Fill-51" fill="currentColor" mask="url(#mask-6)"></path>
                <path d="M34.0741529,23.7225682 L34.0741529,21.9810682 L33.5471804,21.9810682 L33.5471804,21.3436227 L34.0741529,21.3436227 L34.0741529,19.9673591 L34.7410642,19.9673591 L34.7410642,21.3436227 L35.833419,21.3436227 L35.833419,21.9810682 L34.7410642,21.9810682 L34.7410642,23.7071045 C34.7410642,23.9945318 34.988893,24.2667409 35.267792,24.2667409 L35.8644893,24.2667409 L36.0347645,24.9041864 L35.2518899,24.9041864 C34.6011254,24.9041864 34.0741529,24.3833318 34.0741529,23.7225682" id="Fill-52" fill="currentColor" mask="url(#mask-6)"></path>
                <path d="M39.2200122,23.8546227 C39.2200122,24.0566318 39.165945,24.2510318 39.0499817,24.4142591 C38.9411131,24.5774864 38.7862508,24.7019318 38.5770765,24.8030591 C38.3911437,24.8887227 38.1663119,24.9351136 37.9417248,24.9351136 C37.8179327,24.9351136 37.7014801,24.9198955 37.5774434,24.8963318 C37.1901651,24.8187682 36.8258838,24.6474409 36.5159144,24.3833318 L36.934263,23.9245773 C37.3452722,24.2745955 37.693896,24.3443045 37.9106544,24.3443045 C38.0581774,24.3443045 38.1971376,24.3133773 38.3211743,24.2588864 C38.4222141,24.21225 38.600318,24.0956591 38.600318,23.8546227 C38.600318,23.6138318 38.3911437,23.4658227 37.9106544,23.3804045 C37.8874128,23.37255 37.2985443,23.2638136 37.0815413,23.1393682 C36.7564037,22.9528227 36.5853945,22.66515 36.5853945,22.3075227 C36.5853945,22.1131227 36.6475352,21.9268227 36.7564037,21.7631045 C36.8569541,21.6234409 36.9964037,21.5147045 37.1977492,21.4211864 C37.383682,21.3357682 37.5852722,21.2891318 37.810104,21.2891318 C37.8952416,21.2891318 37.988208,21.2967409 38.0733456,21.3045955 C38.4141407,21.3590864 38.7475963,21.50685 39.0264954,21.7324227 L38.6392171,22.1830773 C38.290104,21.9111136 37.988208,21.8723318 37.8411743,21.8723318 C37.7014801,21.8723318 37.5698593,21.89565 37.4614801,21.9498955 C37.3063731,22.0277045 37.205578,22.1676136 37.205578,22.3075227 C37.205578,22.5407045 37.3912661,22.66515 37.8641713,22.7660318 C37.8722446,22.7660318 38.5073517,22.9061864 38.6854557,23.0073136 C38.8951193,23.11605 38.9721835,23.2017136 39.0575657,23.31045 C39.165945,23.4658227 39.2200122,23.6526136 39.2200122,23.8546227" id="Fill-53" fill="currentColor" mask="url(#mask-6)"></path>
                <path d="M42.1581651,23.7225682 L42.1581651,21.9810682 L41.6314373,21.9810682 L41.6314373,21.3436227 L42.1581651,21.3436227 L42.1581651,19.9673591 L42.8243425,19.9673591 L42.8243425,21.3436227 L43.9169419,21.3436227 L43.9169419,21.9810682 L42.8243425,21.9810682 L42.8243425,23.7071045 C42.8243425,23.9945318 43.0721713,24.2667409 43.3510703,24.2667409 L43.9477676,24.2667409 L44.1185321,24.9041864 L43.3359021,24.9041864 C42.6851376,24.9041864 42.1581651,24.3833318 42.1581651,23.7225682" id="Fill-54" fill="currentColor" mask="url(#mask-6)"></path>
                <path d="M47.171792,22.7273236 L47.1644526,22.71186 C47.0093456,22.2531055 46.6139939,21.9421145 46.1799878,21.9421145 C45.7535657,21.9421145 45.3587034,22.2531055 45.1957676,22.71186 L45.1881835,22.7273236 L47.171792,22.7273236 Z M47.8692844,23.28696 L45.1338716,23.28696 L45.1338716,23.3026691 C45.2114251,23.8934782 45.6530153,24.3367691 46.1645749,24.3443782 C46.4826177,24.3289145 46.8075107,24.1966145 47.0325872,23.9712873 L47.5903853,24.3055964 C47.4509358,24.4609691 47.2958287,24.5932691 47.1174801,24.7020055 C46.8464098,24.8652327 46.5134434,24.9508964 46.1799878,24.96636 C45.715156,24.96636 45.2887339,24.77196 44.9787645,24.4221873 C44.6998654,24.1190509 44.5295902,23.7302509 44.4987645,23.3026691 C44.4906911,23.2481782 44.4906911,23.1936873 44.4906911,23.1394418 C44.4906911,22.9992873 44.506104,22.8596236 44.5371743,22.7197145 C44.6068991,22.39326 44.7617615,22.0977327 44.9787645,21.8566964 C45.2887339,21.5147782 45.7227401,21.3203782 46.1799878,21.3203782 C46.6450642,21.3203782 47.0712416,21.5147782 47.3887951,21.8566964 C47.6057982,22.0977327 47.7682446,22.39326 47.8301407,22.7197145 C47.8846972,23.03856 47.8773578,23.2172509 47.8692844,23.28696 Z" id="Fill-55" fill="currentColor" mask="url(#mask-6)"></path>
                <path d="M51.8373089,24.2199327 C51.7754128,24.2977418 51.7132722,24.3755509 51.6435474,24.4455055 C51.2949235,24.7955236 50.8300917,24.9818236 50.333945,24.9818236 C49.8380428,24.9818236 49.3656269,24.7955236 49.0170031,24.4455055 C48.6678899,24.0878782 48.4743731,23.6215145 48.4743731,23.1237327 C48.4743731,22.6264418 48.6678899,22.1598327 49.0170031,21.8022055 C49.3656269,21.4524327 49.8380428,21.2658873 50.333945,21.2658873 C50.8300917,21.2658873 51.2949235,21.4524327 51.6435474,21.8022055 C51.7132722,21.8724055 51.7754128,21.9421145 51.8294801,22.0199236 L51.2949235,22.4163327 C51.0779205,22.1208055 50.7295413,21.9187964 50.333945,21.9187964 C49.6755963,21.9187964 49.1407951,22.4632145 49.1407951,23.1237327 C49.1407951,23.7847418 49.6755963,24.3289145 50.333945,24.3289145 C50.7295413,24.3289145 51.0779205,24.12666 51.2949235,23.8235236 L51.8373089,24.2199327 Z" id="Fill-56" fill="currentColor" mask="url(#mask-6)"></path>
                <path d="M55.9836575,22.9917027 L55.9836575,24.9042845 L55.3169908,24.9042845 L55.3169908,22.9917027 C55.3169908,22.4085027 54.852159,21.9266755 54.2708746,21.9266755 C53.6976636,21.9266755 53.2250031,22.4085027 53.2250031,22.9917027 L53.2250031,24.9042845 L52.558581,24.9042845 L52.558581,19.1977118 L53.2250031,19.1977118 L53.2250031,21.6856391 C53.5268991,21.4524573 53.8911804,21.2735209 54.2708746,21.2735209 C54.7281223,21.2735209 55.1623731,21.4446027 55.4877554,21.7710573 C55.8053089,22.0975118 55.9836575,22.5253391 55.9836575,22.9917027" id="Fill-57" fill="currentColor" mask="url(#mask-6)"></path>
                <path d="M60.2850887,22.9917027 L60.2850887,24.9042845 L59.6186667,24.9042845 L59.6186667,22.9917027 C59.6186667,22.4085027 59.1538349,21.9266755 58.5727951,21.9266755 C57.9988502,21.9266755 57.5266789,22.4085027 57.5266789,22.9917027 L57.5266789,24.9042845 L56.8600122,24.9042845 L56.8600122,21.3434755 L57.5266789,21.3434755 L57.5266789,21.6856391 C57.8288196,21.4524573 58.1928563,21.2735209 58.5727951,21.2735209 C59.0297982,21.2735209 59.4638043,21.4446027 59.7891865,21.7710573 C60.1067401,22.0975118 60.2850887,22.5253391 60.2850887,22.9917027" id="Fill-58" fill="currentColor" mask="url(#mask-6)"></path>
                <path d="M64.0128685,23.1237818 C64.0128685,22.4632636 63.4783119,21.9343091 62.8197187,21.9343091 C62.1611254,21.9343091 61.6260795,22.4632636 61.6260795,23.1237818 C61.6260795,23.7845455 62.1611254,24.3211091 62.8197187,24.3211091 C63.4783119,24.3211091 64.0128685,23.7845455 64.0128685,23.1237818 M64.6797798,23.1237818 C64.6797798,23.6213182 64.4857737,24.0879273 64.1293211,24.4455545 C63.7806972,24.7955727 63.3156208,24.9897273 62.8197187,24.9897273 C62.3240612,24.9897273 61.8589847,24.7955727 61.5020428,24.4455545 C61.1536636,24.0879273 60.9599021,23.6213182 60.9599021,23.1237818 C60.9599021,22.6264909 61.1536636,22.1598818 61.5020428,21.8022545 C61.8589847,21.4522364 62.3240612,21.2659364 62.8197187,21.2659364 C63.3156208,21.2659364 63.7806972,21.4522364 64.1293211,21.8022545 C64.4857737,22.1598818 64.6797798,22.6264909 64.6797798,23.1237818" id="Fill-59" fill="currentColor" mask="url(#mask-6)"></path>
                <polygon id="Fill-60" fill="currentColor" mask="url(#mask-6)" points="65.4940673 24.9043091 66.1602446 24.9043091 66.1602446 19.1977364 65.4940673 19.1977364"></polygon>
                <path d="M70.0893945,23.1237818 C70.0893945,22.4632636 69.5543486,21.9343091 68.8955107,21.9343091 C68.2371621,21.9343091 67.7026055,22.4632636 67.7026055,23.1237818 C67.7026055,23.7845455 68.2371621,24.3211091 68.8955107,24.3211091 C69.5543486,24.3211091 70.0893945,23.7845455 70.0893945,23.1237818 M70.7553272,23.1237818 C70.7553272,23.6213182 70.5618104,24.0879273 70.2053578,24.4455545 C69.8564893,24.7955727 69.3914128,24.9897273 68.8955107,24.9897273 C68.3998532,24.9897273 67.9347768,24.7955727 67.5785688,24.4455545 C67.229945,24.0879273 67.0359388,23.6213182 67.0359388,23.1237818 C67.0359388,22.6264909 67.229945,22.1598818 67.5785688,21.8022545 C67.9347768,21.4522364 68.3998532,21.2659364 68.8955107,21.2659364 C69.3914128,21.2659364 69.8564893,21.4522364 70.2053578,21.8022545 C70.5618104,22.1598818 70.7553272,22.6264909 70.7553272,23.1237818" id="Fill-61" fill="currentColor" mask="url(#mask-6)"></path>
                <path d="M74.4448196,23.1237818 C74.4448196,22.4632636 73.910263,21.9188455 73.2516697,21.9188455 C72.5928318,21.9188455 72.0582752,22.4632636 72.0582752,23.1237818 C72.0582752,23.7845455 72.5928318,24.3289636 73.2516697,24.3289636 C73.910263,24.3289636 74.4448196,23.7845455 74.4448196,23.1237818 Z M75.1114862,21.3435 L75.1114862,25.0751455 C75.1114862,25.5729273 74.9174801,26.0469 74.5615168,26.3969182 C74.2124037,26.7466909 73.7473272,26.9410909 73.2516697,26.9410909 C72.8798043,26.9410909 72.5387645,26.8402091 72.251792,26.6688818 C72.1358287,26.5989273 72.0196208,26.5056545 71.9188257,26.4123818 L72.4225566,25.9693364 C72.6471437,26.1480273 72.9646972,26.2724727 73.2516697,26.2881818 C73.910263,26.2881818 74.4448196,25.7361545 74.4448196,25.0751455 L74.4448196,24.4921909 C74.1116086,24.7720091 73.6935046,24.9818727 73.2516697,24.9818727 C72.7557676,24.9818727 72.2906911,24.7955727 71.9342385,24.4455545 C71.5856147,24.0879273 71.3918532,23.6213182 71.3918532,23.1237818 C71.3918532,22.6264909 71.5856147,22.1598818 71.9342385,21.8022545 C72.2906911,21.4522364 72.7557676,21.2659364 73.2516697,21.2659364 C73.6935046,21.2659364 74.1116086,21.4755545 74.4448196,21.7556182 L74.4448196,21.3435 L75.1114862,21.3435 Z" id="Fill-62" fill="currentColor" mask="url(#mask-6)"></path>
                <polygon id="Fill-63" fill="currentColor" mask="url(#mask-6)" points="77.1108502 26.9410418 76.3903609 26.9410418 77.2197187 24.90426 75.7780061 21.3434509 76.4987401 21.3434509 77.575682 24.0179236 78.6531131 21.3434509 79.3736024 21.3434509"></polygon>
            </g>
        </g>
    </g>
</svg>