<?xml version="1.0" encoding="UTF-8"?>
<svg width="16px" height="18px" viewBox="0 0 16 18" version="1.1" xmlns="http://www.w3.org/2000/svg" xmlns:xlink="http://www.w3.org/1999/xlink">
    <title>Password field</title>
    <g id="登陆" stroke="none" stroke-width="1" fill="none" fill-rule="evenodd">
        <g id="Password-field" fill="#D0D4E5" fill-rule="nonzero">
            <path d="M8,2.27373675e-13 C10.6509668,2.27373675e-13 12.8,2.19787486 12.8,4.90909091 L12.8,6.545 L13.6,6.54545455 C14.9254834,6.54545455 16,7.64439198 16,9 L16,15.5454545 C16,16.9010626 14.9254834,18 13.6,18 L2.4,18 C1.0745166,18 0,16.9010626 0,15.5454545 L0,9 C0,7.64439198 1.0745166,6.54545455 2.4,6.54545455 L3.2,6.545 L3.2,4.90909091 C3.2,2.19787486 5.3490332,2.27373675e-13 8,2.27373675e-13 Z M8,1.63636364 C6.2326888,1.63636364 4.8,3.10161355 4.8,4.90909091 L4.8,6.545 L11.2,6.545 L11.2,4.90909091 C11.2,3.10161355 9.7673112,1.63636364 8,1.63636364 Z" id="Color"></path>
        </g>
    </g>
</svg>